<?xml version="1.0" encoding="utf-8"?>
<!-- Generator: Adobe Illustrator 17.0.0, SVG Export Plug-In . SVG Version: 6.00 Build 0)  -->
<!DOCTYPE svg PUBLIC "-//W3C//DTD SVG 1.1 Tiny//EN" "http://www.w3.org/Graphics/SVG/1.1/DTD/svg11-tiny.dtd">
<svg version="1.1" baseProfile="tiny" id="Layer_1" xmlns="http://www.w3.org/2000/svg" xmlns:xlink="http://www.w3.org/1999/xlink"
	 x="0px" y="0px" width="570px" height="465px" viewBox="0 0 570 465" xml:space="preserve">
<path fill-rule="evenodd" fill="#FFFFFF" d="M276.945,258.074c-0.046-3.425,1.039-5.041,3.486-5.55
	c1.871-0.387,3.361,0.235,4.472,1.732c1.078,1.453,1.088,3.239,0.115,4.787c-0.993,1.572-2.656,2.284-4.545,1.941
	c-5.346-0.97-8.182-7.413-5.46-12.491c2.029-3.785,5.391-5.912,9.321-7.289c3.977-1.396,7.982-2.715,11.922-4.213
	c2.34-0.889,4.288-2.373,5.481-4.975c-0.614,0.151-1.061,0.303-1.519,0.367c-1.478,0.215-2.816-0.646-3.244-2.088
	c-0.439-1.48,0.02-2.683,1.292-3.504c1.236-0.798,2.909-0.513,3.836,0.616c1.32,1.606,1.136,3.374,0.38,5.129
	c-1.478,3.429-4.571,4.863-7.762,6.154c-0.755,0.306-1.531,0.564-2.464,0.906c3.247,3.071,5.046,6.781,5.53,11.135
	c0.95,8.596-3.221,15.865-11.12,19.441c-5.493,2.487-11.23,3.479-17.137,2.253c-9.009-1.87-15.006-10.262-14.284-19.856
	c0.534-7.102,3.182-13.174,9.353-17.268c0.762-0.504,1.617-0.867,2.439-1.303c-4.923-6.499-3.494-13.425-0.71-17.456
	c2.488-3.602,6.146-5.559,10.175-6.828c4.377-1.381,8.879-2.175,13.157,0.214c4.531,2.53,6.768,6.634,6.6,11.762
	c-0.148,4.506-2.892,7.435-6.917,9.122c-2.664,1.118-5.365,1.168-7.865-0.592c-1.868-1.316-2.262-3.349-0.996-5.023
	c1.16-1.532,3.489-1.849,5.023-0.685c1.66,1.259,1.819,3.36,0.383,5.116c-0.2,0.244-0.427,0.466-0.714,0.777
	c6.851,0.414,11.935-6.454,9.611-12.745c-2.378-6.443-7.705-9.346-14.515-7.911c-5.242,1.104-9.482,7.154-9.158,13.065
	c0.32,5.87,2.605,10.293,7.087,13.499c-1.098,0.439-2.108,0.788-3.074,1.235c-7.868,3.635-11.697,13.189-8.748,21.574
	c1.375,3.915,3.354,7.373,6.853,9.733c4.454,3.006,8.946,2.592,13.613,0.244c9.772-4.921,13.211-16.51,7.456-25.655
	c-0.124-0.196-0.27-0.381-0.403-0.572c-1.944-2.783-2.365-2.966-5.576-2.012c-4.061,1.205-8.048,2.556-11.021,5.836
	c-2.504,2.766-3.09,6.479-1.465,9.788C276.082,256.987,276.477,257.413,276.945,258.074z"/>
<g>
	<path fill="#FFFFFF" d="M367.22,224.494c-0.768-5.551-4.411-10.365-10.862-12.411c-6.711-2.127-14.104-0.976-18.494,4.044
		c-4.697,5.372-4.488,11.789-1.273,16.667c2.12,3.217,8.326,5.496,12.839,1.775c4.355-3.592,4.154-8.445,1.47-11.848
		c-2.648-3.356-6.809-3.604-10.657-1.598c-1.694,0.883-3.616,2.708-4.39,5.43c-0.644-7.68,5.523-13.555,13.102-14.055
		c7.61-0.502,15.494,4.175,16.595,11.852c1.765,12.023-4.49,18.895-15.715,20.648c-16.271,2.541-24.975,1.529-74.833-10.333
		c-42.47-10.105-108.005,46.202-135.213,57.608l-3.99,5.14c3.783-0.162,8.559-0.753,14.059-2.288
		c19.082-5.326,79.395-68.654,125.145-58.568c39.749,8.764,53.926,13.758,75.875,9.566
		C359.147,244.545,368.777,240.071,367.22,224.494z"/>
	<path fill="#FFFFFF" d="M106.664,293.036l1-2l33.623-6.24c16.144-19.027,22.68-52.663,39.979-108.58
		c5.517-16.841-2.429,7.233,3.119-9.598c5.982-18.147,11.208-36.554,18.759-54.253c9.142-21.424,25.172-29.709,46.679-26.648
		c20.59,2.929,31.227,19.513,25.888,40.356c-4.434,17.303-24.622,30.559-39.644,25.887c0.475-0.352,0.872-0.648,1.273-0.94
		c6.526-4.734,8.378-11.346,4.495-16.048c-3.599-4.354-10.58-4.318-15.129,0.075c-4.775,4.613-4.699,11.999,0.308,16.196
		c5.844,4.896,13.301,5.637,21.09,3.844c15.373-3.541,27.066-14.89,30.52-28.801c4.182-16.85-1.355-31.75-14.379-38.69
		c-18.688-9.961-50.088-5.433-70.01,10.242c-16.229,12.77-25.682,29.706-32.022,47.937c-8.569,24.646-3.215,10.492-11.165,35.27
		c-12.447,44.771-28.549,90.204-43.476,109.63c-1.026-0.088,0.011-0.185-0.909-0.286V293.036z"/>
</g>
<polygon fill="#BCD7F0" points="8.896,291.036 72.333,280.329 72.333,266.559 0.332,278.217 "/>
<polygon fill="#BCD7F0" points="72.333,295.575 46.324,299.72 72.333,266.559 "/>
<polygon fill="#BCD7F0" points="561.432,353.27 497.994,363.978 497.994,377.747 569.996,366.09 "/>
<polygon fill="#BCD7F0" points="497.994,348.731 524.003,344.587 497.994,377.747 "/>
<g>
	<path fill="none" d="M90.563,217.407c0.52-6.477,1.36-12.865,2.507-19.147c-7.285,0.371-13.988,2.988-19.421,7.179
		C77.814,210.898,83.616,215.166,90.563,217.407z"/>
	<path fill="none" d="M115.458,104.459c0.901,7.039,3.919,13.584,8.736,18.886c3.683-5.317,7.625-10.441,11.809-15.353
		C129.469,104.628,122.303,103.532,115.458,104.459z"/>
	<path fill="none" d="M87.914,152.189c2.609,6.352,7.123,11.956,13.251,15.922c2.18-6.09,4.656-12.041,7.414-17.833
		C101.43,148.743,94.261,149.538,87.914,152.189z"/>
	<path fill="none" d="M158,85.999c4.908-4.179,10.026-8.115,15.338-11.794c-5.431-4.926-12.04-7.856-18.878-8.734
		C153.539,72.312,154.636,79.471,158,85.999z"/>
	<path fill="none" d="M258.134,25.927c-3.896,4.651-6.542,10.394-7.376,16.724c5.484-0.926,11.044-1.626,16.674-2.078
		C265.571,34.807,262.309,29.836,258.134,25.927z"/>
	<path fill="none" d="M291.294,37.216c2.253-6.534,6.005-12.328,10.949-17.007c-5.109-3.635-11.306-5.852-18.03-6.045
		c-7.531-0.225-14.554,2.143-20.226,6.285c4.742,4.548,8.49,10.232,10.761,16.779L291.294,37.216z"/>
	<path fill="none" d="M225.309,17.667c-8.031,2.15-14.656,6.961-19.179,13.23c8.039,3.514,15.07,9.516,19.807,17.657
		c4.138-1.283,8.337-2.424,12.587-3.43c0.397-9.735,3.898-18.645,9.522-25.796C241.106,16.338,233.157,15.562,225.309,17.667z"/>
	<path fill="none" d="M202.201,37.918c-2.647,6.345-3.44,13.512-1.902,20.661c5.79-2.756,11.738-5.229,17.826-7.407
		C214.158,45.044,208.552,40.528,202.201,37.918z"/>
	<path fill="none" d="M411.591,65.466c-6.846,0.879-13.458,3.813-18.892,8.749c5.303,3.674,10.414,7.604,15.314,11.776
		C411.311,79.617,412.541,72.506,411.591,65.466z"/>
	<path fill="none" d="M340.103,48.56c4.616-7.955,11.502-14.082,19.773-17.698c-4.523-6.26-11.141-11.063-19.165-13.214
		c-7.512-2.011-15.301-1.468-22.358,1.481c5.762,7.252,9.316,16.308,9.683,26.127C332.109,46.233,336.135,47.33,340.103,48.56z"/>
	<path fill="none" d="M298.607,40.576c5.809,0.467,11.544,1.195,17.198,2.167c-0.835-6.469-3.565-12.375-7.632-17.117
		C303.76,29.666,300.464,34.777,298.607,40.576z"/>
	<path fill="none" d="M363.812,37.885c-6.537,2.685-12.036,7.292-15.903,13.291c6.082,2.177,12.026,4.648,17.81,7.401
		C367.262,51.419,366.466,44.238,363.812,37.885z"/>
	<path fill="none" d="M492.399,205.46c-5.436-4.202-12.147-6.827-19.442-7.199c1.146,6.279,1.986,12.664,2.506,19.137
		C482.253,215.208,488.118,211.083,492.399,205.46z"/>
	<path fill="none" d="M478.139,152.183c-6.533-2.734-13.694-3.394-20.683-1.886c2.755,5.786,5.227,11.73,7.405,17.813
		C470.856,164.236,475.458,158.729,478.139,152.183z"/>
	<path fill="none" d="M450.545,104.43c-7.034-0.951-14.144,0.278-20.516,3.57c4.172,4.898,8.103,10.006,11.776,15.306
		C446.733,117.876,449.665,111.267,450.545,104.43z"/>
	<path fill="none" d="M411.595,400.542c0.951-7.038-0.276-14.145-3.569-20.514c-4.902,4.175-10.015,8.107-15.32,11.783
		C398.142,396.736,404.754,399.665,411.595,400.542z"/>
	<path fill="none" d="M373.75,406.72c1.564,8.142,0.681,16.273-2.177,23.571c7.623,1.23,15.711-0.048,22.91-4.199
		c7.02-4.054,12.298-10.277,15.132-17.753c-7.765-1.172-15.265-4.475-21.55-9.91L373.75,406.72z"/>
	<path fill="none" d="M255.457,442.399c5.629-4.283,9.752-10.152,11.931-16.942c-6.469-0.52-12.849-1.359-19.124-2.504
		C248.633,430.249,251.257,436.962,255.457,442.399z"/>
	<path fill="none" d="M476.094,121.532c-4.053-7.02-10.274-12.296-17.751-15.126c-1.174,7.759-4.479,15.257-9.914,21.535
		l8.278,14.339c2.702-0.522,5.422-0.781,8.129-0.781c5.287,0,10.525,0.989,15.485,2.936
		C481.599,136.553,480.14,128.539,476.094,121.532z"/>
	<path fill="none" d="M310.562,442.396c4.198-5.437,6.82-12.147,7.189-19.442c-6.273,1.144-12.65,1.983-19.116,2.503
		C300.822,432.247,304.943,438.114,310.562,442.396z"/>
	<path fill="none" d="M427.303,365.607l-11.688,11.699c3.551,7.299,4.928,15.339,4.028,23.336
		c7.682-0.788,15.146-4.116,21.016-9.985c5.882-5.883,9.215-13.362,10-21.055C442.859,370.477,434.771,369.226,427.303,365.607z"/>
	<path fill="none" d="M485.161,156.118c-3.221,7.388-8.439,13.674-15.174,18.227l4.277,15.976c8.287,0.596,15.93,3.563,22.248,8.225
		c3.279-7.288,3.944-15.416,1.846-23.242C496.266,167.485,491.634,160.786,485.161,156.118z"/>
	<path fill="none" d="M363.83,428.107c2.649-6.345,3.442-13.511,1.9-20.657c-5.79,2.757-11.739,5.23-17.827,7.409
		C351.87,420.985,357.477,425.499,363.83,428.107z"/>
	<path fill="none" d="M192.284,406.703l-14.326-8.276c-6.272,5.431-13.762,8.735-21.513,9.913
		c2.746,7.229,7.896,13.594,15.091,17.754c7.208,4.154,15.299,5.434,22.93,4.2C191.608,422.992,190.722,414.853,192.284,406.703z"/>
	<path fill="none" d="M202.208,428.107c6.348-2.61,11.946-7.124,15.904-13.25c-6.083-2.178-12.027-4.649-17.813-7.404
		C198.767,414.6,199.562,421.766,202.208,428.107z"/>
	<path fill="none" d="M224.347,419.987c-4.648,6.867-11.028,11.997-18.212,15.14c4.522,6.271,11.145,11.08,19.173,13.229
		c7.822,2.101,15.946,1.436,23.234-1.845c-4.658-6.317-7.622-13.954-8.217-22.238L224.347,419.987z"/>
	<path fill="none" d="M341.674,419.996l-15.984,4.278c-0.596,8.281-3.56,15.92-8.215,22.236c7.284,3.278,15.412,3.944,23.236,1.847
		c8.036-2.152,14.663-6.963,19.189-13.231C352.712,431.986,346.33,426.861,341.674,419.996z"/>
	<path fill="none" d="M291.283,428.79h-16.544c-2.645,7.682-7.36,14.35-13.663,19.374c5.989,4.875,13.625,7.801,21.933,7.801
		c8.308,0,15.945-2.928,21.935-7.804C298.648,443.138,293.935,436.472,291.283,428.79z"/>
	<path fill="none" d="M109.341,142.265l8.247-14.306c-5.319-6.137-8.73-13.552-9.931-21.514c-7.215,2.75-13.564,7.898-17.717,15.087
		c-4.156,7.2-5.439,15.285-4.208,22.915C93.039,141.584,101.187,140.698,109.341,142.265z"/>
	<path fill="none" d="M87.589,224.855c-8-2.692-14.735-7.583-19.705-13.806c-4.886,5.993-7.819,13.637-7.819,21.955
		c0,8.31,2.929,15.948,7.808,21.938c5.494-6.844,13.054-11.953,21.78-14.409L87.589,224.855z"/>
	<path fill="none" d="M73.635,260.557c4.729,3.65,10.417,6.112,16.618,6.936l-2.364-17.894
		C82.211,251.959,77.313,255.762,73.635,260.557z"/>
	<path fill="none" d="M91.756,190.321l4.276-15.978c-6.869-4.655-11.995-11.036-15.136-18.222
		c-6.267,4.526-11.076,11.151-13.229,19.183c-2.151,8.031-1.297,16.172,1.868,23.223C75.848,193.876,83.48,190.917,91.756,190.321z"
		/>
	<path fill="none" d="M192.283,59.322c-1.566-8.15-0.682-16.287,2.177-23.59c-7.633-1.234-15.72,0.048-22.925,4.207
		c-7.196,4.155-12.347,10.512-15.095,17.734c7.759,1.173,15.254,4.476,21.532,9.909L192.283,59.322z"/>
	<path fill="none" d="M440.659,75.351c-5.872-5.87-13.341-9.199-21.02-9.987c0.898,8.001-0.482,16.047-4.039,23.352l11.698,11.7
		c7.306-3.553,15.354-4.932,23.351-4.034C449.864,88.697,446.533,81.226,440.659,75.351z"/>
	<path fill="none" d="M138.746,100.416l11.671-11.686c-3.624-7.471-4.875-15.565-4.001-23.363
		c-7.69,0.786-15.167,4.119-21.046,9.998c-5.731,5.726-9.217,13.097-10.019,21.05c1.592-0.179,3.195-0.27,4.804-0.27
		C126.439,96.146,132.79,97.527,138.746,100.416z"/>
	<path fill="none" d="M394.481,39.92c-7.021-4.051-15.043-5.51-22.93-4.224c2.866,7.312,3.755,15.464,2.185,23.625l14.337,8.262
		c6.279-5.437,13.778-8.741,21.539-9.915C406.78,50.195,401.502,43.974,394.481,39.92z"/>
	<path fill="#BCD7F0" d="M200.705,405.748c-0.152,0.568-0.284,1.137-0.406,1.706c5.785,2.754,11.729,5.226,17.813,7.404
		c0.32-0.496,0.652-0.981,0.95-1.499l1.535-2.661l27.617,7.408v3.068c0,0.597,0.02,1.189,0.05,1.778
		c6.275,1.145,12.655,1.984,19.124,2.504c0.181-0.563,0.374-1.121,0.527-1.697l0.792-2.971h28.604l0.794,2.966
		c0.154,0.577,0.348,1.137,0.53,1.701c6.466-0.52,12.844-1.359,19.116-2.503c0.03-0.59,0.05-1.182,0.05-1.779v-3.07l27.617-7.393
		l1.535,2.655c0.298,0.515,0.629,0.999,0.95,1.493c6.088-2.179,12.037-4.653,17.827-7.409c-0.121-0.56-0.252-1.12-0.402-1.679
		l-0.792-2.961l24.737-14.326l2.174,2.171c0.407,0.406,0.837,0.774,1.259,1.156c5.305-3.676,10.418-7.609,15.32-11.783
		c-0.253-0.49-0.515-0.976-0.793-1.457l-1.534-2.657l20.2-20.222l2.659,1.533c0.486,0.28,0.978,0.544,1.472,0.799
		c1.927-2.263,3.804-4.569,5.627-6.92l-11.858,1.905c-33.975,39.8-84.483,65.083-140.791,65.083c-35.2,0-68.134-9.881-96.18-27.01
		l-4.377,0.703l19.045,11.002L200.705,405.748z"/>
	<path fill="#BCD7F0" d="M473.76,217.93c0.578-0.155,1.138-0.349,1.704-0.532c-0.52-6.473-1.36-12.858-2.506-19.137
		c-0.594-0.03-1.191-0.051-1.792-0.051h-3.07l-7.393-27.615l2.657-1.534c0.516-0.298,1.005-0.63,1.502-0.951
		c-2.178-6.084-4.65-12.028-7.405-17.813c-0.568,0.123-1.135,0.255-1.7,0.406l-2.965,0.794l-14.303-24.773l2.171-2.17
		c0.403-0.403,0.767-0.829,1.146-1.247c-3.674-5.3-7.604-10.408-11.776-15.306c-0.493,0.255-0.984,0.519-1.468,0.798l-2.658,1.534
		l-20.222-20.223l1.537-2.659c0.279-0.482,0.541-0.969,0.795-1.46c-4.901-4.172-10.011-8.102-15.314-11.776
		c-0.414,0.376-0.837,0.737-1.237,1.137l-2.168,2.168l-24.776-14.277l0.796-2.967c0.152-0.565,0.284-1.131,0.406-1.697
		c-5.785-2.753-11.728-5.224-17.81-7.401c-0.316,0.491-0.643,0.973-0.937,1.482l-6.93-3.997c0.02-0.034,0.041-0.067,0.061-0.101
		c-3.968-1.231-7.994-2.327-12.066-3.303c0.037,0.987,0.054,1.979,0.025,2.98l-11.996-0.342c0.05-1.749-0.042-3.47-0.26-5.153
		c-5.654-0.971-11.389-1.7-17.198-2.167c-0.176,0.551-0.34,1.108-0.49,1.671l-0.792,2.966l-28.596,0.02l-0.796-2.965
		c-0.153-0.572-0.321-1.136-0.501-1.693c-5.63,0.452-11.19,1.152-16.674,2.078c-0.145,1.101-0.235,2.219-0.268,3.352l-11.995-0.348
		c0.005-0.178,0.022-0.353,0.029-0.531c-4.251,1.006-8.45,2.147-12.587,3.43c0.023,0.04,0.049,0.078,0.072,0.119l-6.928,4.002
		c-0.3-0.519-0.633-1.006-0.955-1.504c-6.088,2.179-12.036,4.651-17.826,7.407c0.122,0.566,0.254,1.132,0.405,1.697l0.794,2.964
		l-24.742,14.28l-2.17-2.168c-0.404-0.403-0.831-0.768-1.249-1.147c-5.311,3.679-10.43,7.615-15.338,11.794
		c0.254,0.493,0.518,0.984,0.798,1.47l1.532,2.656l-20.183,20.208l-2.66-1.535c-0.491-0.283-0.987-0.55-1.485-0.806
		c-4.184,4.912-8.126,10.036-11.809,15.353c0.378,0.416,0.763,0.826,1.163,1.227l2.167,2.169l-14.263,24.742l-2.967-0.795
		c-0.571-0.153-1.143-0.286-1.716-0.409c-2.758,5.792-5.234,11.742-7.414,17.833c0.495,0.32,0.979,0.652,1.495,0.95l2.656,1.534
		l-7.39,27.614h-3.07c-0.599,0-1.194,0.02-1.786,0.05c-1.147,6.282-1.986,12.67-2.507,19.147c0.557,0.18,1.119,0.351,1.69,0.504
		l2.582,0.692l3.514,26.698c-0.268-4.066-0.418-8.164-0.418-12.297c0-102.043,83.026-185.061,185.078-185.061
		c102.058,0,185.088,83.018,185.088,185.061c0,2.604-0.068,5.192-0.175,7.771l2.885-0.455l-0.013-21.596L473.76,217.93z"/>
	<path fill="#BCD7F0" d="M102.659,296.968c-0.513,0.296-0.998,0.625-1.492,0.944c0.079,0.222,0.155,0.445,0.235,0.666l8.056-1.27
		c-3.365-9.054-6.038-18.441-7.961-28.096l3.477,26.419L102.659,296.968z"/>
	<path fill="#BCD7F0" d="M308.174,25.625c-1.746-2.036-3.739-3.855-5.931-5.415c-4.944,4.678-8.697,10.473-10.949,17.007
		l-16.545,0.012c-2.271-6.546-6.019-12.231-10.761-16.779c-2.165,1.582-4.131,3.422-5.853,5.478
		c4.174,3.908,7.436,8.88,9.298,14.647c0.18,0.557,0.347,1.121,0.501,1.693l0.796,2.965l28.596-0.02l0.792-2.966
		c0.15-0.563,0.314-1.12,0.49-1.671C300.464,34.777,303.76,29.666,308.174,25.625z"/>
	<path fill="#BCD7F0" d="M476.003,344.622c-4.159,7.124-10.475,12.23-17.654,14.959c-0.601-3.967-1.768-7.862-3.483-11.563
		l-8.305,1.334c2.097,3.835,3.445,7.975,3.991,12.207c-6.844,0.918-13.998-0.177-20.522-3.535c-0.494-0.254-0.985-0.518-1.472-0.799
		l-2.659-1.533l-20.2,20.222l1.534,2.657c0.278,0.481,0.54,0.967,0.793,1.457c3.293,6.368,4.52,13.476,3.569,20.514
		c-6.84-0.877-13.453-3.806-18.888-8.731c-0.422-0.382-0.852-0.75-1.259-1.156l-2.174-2.171l-24.737,14.326l0.792,2.961
		c0.15,0.559,0.281,1.119,0.402,1.679c1.542,7.146,0.749,14.312-1.9,20.657c-6.353-2.609-11.96-7.123-15.927-13.247
		c-0.32-0.494-0.651-0.978-0.95-1.493l-1.535-2.655l-27.617,7.393v3.07c0,0.597-0.02,1.189-0.05,1.779
		c-0.37,7.294-2.992,14.004-7.189,19.442c-5.619-4.282-9.74-10.148-11.927-16.938c-0.182-0.565-0.376-1.124-0.53-1.701l-0.794-2.966
		h-28.604l-0.792,2.971c-0.153,0.576-0.346,1.133-0.527,1.697c-2.179,6.789-6.302,12.659-11.931,16.942
		c-4.199-5.438-6.823-12.151-7.193-19.446c-0.03-0.589-0.05-1.182-0.05-1.778v-3.068l-27.617-7.408l-1.535,2.661
		c-0.298,0.517-0.63,1.003-0.95,1.499c-3.958,6.125-9.556,10.64-15.904,13.25c-2.645-6.342-3.441-13.507-1.908-20.653
		c0.122-0.569,0.254-1.138,0.406-1.706l0.792-2.962l-19.045-11.002l-11.265,1.81c-4.982,3.843-10.761,6.178-16.718,6.949
		c-0.187-1.394-0.29-2.801-0.309-4.213l-7.962,1.279c0.041,1.019,0.115,2.035,0.229,3.045c-2.723-0.276-5.418-0.878-8.026-1.792
		l-13.162,2.115c6.862,4.863,14.841,7.475,22.905,7.815c3.101,9.873,9.756,18.659,19.393,24.231
		c9.656,5.564,20.595,6.936,30.692,4.687c5.55,8.734,14.253,15.496,25.007,18.375c10.447,2.803,21.334,1.597,30.866-3.383
		c7.621,6.992,17.773,11.264,28.906,11.264c11.133,0,21.286-4.273,28.906-11.265c9.524,4.979,20.413,6.186,30.867,3.385
		c10.764-2.884,19.473-9.646,25.025-18.379c10.101,2.247,21.031,0.874,30.674-4.686c9.377-5.414,16.227-13.975,19.442-24.238
		c10.329-0.447,20.525-4.604,28.392-12.469c7.88-7.879,12.04-18.089,12.481-28.429c9.872-3.103,18.657-9.762,24.225-19.404
		c1.014-1.756,1.896-3.564,2.644-5.411L476.003,344.622z M171.537,426.094c-7.195-4.16-12.345-10.524-15.091-17.754
		c7.751-1.178,15.24-4.482,21.513-9.913l14.326,8.276c-1.562,8.149-0.676,16.289,2.182,23.591
		C186.836,431.527,178.744,430.248,171.537,426.094z M225.308,448.356c-8.028-2.149-14.65-6.959-19.173-13.229
		c7.184-3.143,13.563-8.272,18.212-15.14l15.978,4.286c0.596,8.284,3.56,15.921,8.217,22.238
		C241.254,449.792,233.129,450.457,225.308,448.356z M283.009,455.965c-8.307,0-15.943-2.926-21.933-7.801
		c6.303-5.024,11.018-11.692,13.663-19.374h16.544c2.651,7.682,7.365,14.348,13.66,19.371
		C298.954,453.037,291.316,455.965,283.009,455.965z M340.711,448.357c-7.824,2.098-15.952,1.432-23.236-1.847
		c4.655-6.316,7.619-13.955,8.215-22.236l15.984-4.278c4.656,6.865,11.038,11.99,18.227,15.13
		C355.374,441.395,348.747,446.205,340.711,448.357z M394.483,426.092c-7.199,4.151-15.287,5.43-22.91,4.199
		c2.857-7.298,3.741-15.43,2.177-23.571l14.315-8.291c6.285,5.436,13.785,8.738,21.55,9.91
		C406.781,415.814,401.503,422.038,394.483,426.092z M440.659,390.657c-5.87,5.869-13.334,9.197-21.016,9.985
		c0.899-7.997-0.478-16.037-4.028-23.336l11.688-11.699c7.468,3.618,15.557,4.869,23.356,3.995
		C449.874,377.295,446.541,384.774,440.659,390.657z"/>
	<path fill="#BCD7F0" d="M506.086,173.234c-2.796-10.447-9.279-19.269-18.348-25.028c2.34-10.488,0.688-21.312-4.717-30.673
		c-5.411-9.375-13.969-16.221-24.233-19.434c-0.443-10.332-4.602-20.533-12.473-28.405c-7.869-7.868-18.066-12.024-28.395-12.47
		c-3.215-10.261-10.063-18.818-19.44-24.232c-9.376-5.41-20.209-7.061-30.697-4.712c-5.552-8.724-14.251-15.477-25.002-18.359
		c-10.246-2.743-20.905-1.631-30.291,3.102c2.141,1.847,4.103,3.893,5.862,6.107c7.057-2.949,14.846-3.492,22.358-1.481
		c8.024,2.151,14.642,6.954,19.165,13.214c-8.271,3.615-15.157,9.742-19.773,17.698c-0.02,0.034-0.041,0.067-0.061,0.101l6.93,3.997
		c0.294-0.509,0.621-0.991,0.937-1.482c3.867-6,9.366-10.606,15.903-13.291c2.654,6.353,3.451,13.534,1.908,20.693
		c-0.122,0.566-0.254,1.132-0.406,1.697l-0.796,2.967l24.776,14.277l2.168-2.168c0.4-0.4,0.823-0.76,1.237-1.137
		c5.434-4.936,12.047-7.87,18.892-8.749c0.95,7.04-0.28,14.151-3.578,20.525c-0.254,0.491-0.517,0.979-0.795,1.46l-1.537,2.659
		l20.222,20.223l2.658-1.534c0.484-0.28,0.974-0.543,1.468-0.798c6.372-3.292,13.482-4.521,20.516-3.57
		c-0.88,6.837-3.812,13.446-8.74,18.876c-0.379,0.417-0.743,0.844-1.146,1.247l-2.171,2.17l14.303,24.773l2.965-0.794
		c0.565-0.151,1.132-0.283,1.7-0.406c6.989-1.508,14.15-0.848,20.683,1.886c-2.681,6.546-7.282,12.054-13.277,15.927
		c-0.497,0.321-0.986,0.653-1.502,0.951l-2.657,1.534l7.393,27.615h3.07c0.602,0,1.198,0.02,1.792,0.051
		c7.295,0.372,14.006,2.998,19.442,7.199c-4.281,5.623-10.147,9.748-16.936,11.938c-0.566,0.182-1.126,0.377-1.704,0.532
		l-2.967,0.795l0.013,21.596l7.999-1.261l-0.008-14.311c7.679-2.655,14.344-7.371,19.365-13.667
		c4.87,5.988,7.793,13.621,7.793,21.923c0,0.597-0.019,1.19-0.049,1.78l7.097-1.119v-9.607c-1.62-7.583-5.243-14.433-10.303-19.951
		C507.682,194.578,508.889,183.685,506.086,173.234z M388.073,67.583l-14.337-8.262c1.57-8.161,0.682-16.313-2.185-23.625
		c7.887-1.286,15.909,0.173,22.93,4.224c7.021,4.054,12.299,10.274,15.131,17.748C401.852,58.842,394.353,62.146,388.073,67.583z
		 M427.299,100.416l-11.698-11.7c3.557-7.305,4.938-15.351,4.039-23.352c7.679,0.788,15.147,4.118,21.02,9.987
		c5.874,5.875,9.205,13.346,9.99,21.031C442.653,95.483,434.604,96.863,427.299,100.416z M464.836,141.498
		c-2.707,0-5.427,0.259-8.129,0.781l-8.278-14.339c5.435-6.278,8.74-13.775,9.914-21.535c7.477,2.831,13.698,8.107,17.751,15.126
		c4.046,7.007,5.505,15.021,4.228,22.902C475.361,142.487,470.123,141.498,464.836,141.498z M496.513,198.546
		c-6.318-4.661-13.961-7.628-22.248-8.225l-4.277-15.976c6.734-4.553,11.953-10.839,15.174-18.227
		c6.473,4.667,11.104,11.367,13.197,19.186C500.457,183.13,499.792,191.258,496.513,198.546z"/>
	<path fill="#BCD7F0" d="M92.253,217.911c-0.572-0.153-1.133-0.324-1.69-0.504c-6.947-2.242-12.749-6.509-16.914-11.968
		c5.433-4.19,12.136-6.808,19.421-7.179c0.592-0.03,1.187-0.05,1.786-0.05h3.07l7.39-27.614l-2.656-1.534
		c-0.516-0.298-1-0.63-1.495-0.95c-6.128-3.966-10.642-9.57-13.251-15.922c6.347-2.651,13.516-3.446,20.665-1.911
		c0.572,0.123,1.144,0.256,1.716,0.409l2.967,0.795l14.263-24.742l-2.167-2.169c-0.4-0.4-0.785-0.811-1.163-1.227
		c-4.817-5.302-7.835-11.847-8.736-18.886c6.845-0.927,14.011,0.169,20.545,3.533c0.499,0.257,0.994,0.523,1.485,0.806l2.66,1.535
		l20.183-20.208l-1.532-2.656c-0.28-0.486-0.544-0.976-0.798-1.47c-3.364-6.528-4.461-13.687-3.54-20.529
		c6.837,0.879,13.447,3.808,18.878,8.734c0.418,0.379,0.845,0.744,1.249,1.147l2.17,2.168l24.742-14.28l-0.794-2.964
		c-0.151-0.565-0.283-1.131-0.405-1.697c-1.538-7.149-0.746-14.316,1.902-20.661c6.35,2.61,11.957,7.126,15.924,13.253
		c0.322,0.498,0.656,0.985,0.955,1.504l6.928-4.002c-0.023-0.04-0.049-0.079-0.072-0.119c-4.738-8.141-11.768-14.143-19.807-17.657
		c4.523-6.269,11.148-11.08,19.179-13.23c7.848-2.105,15.797-1.329,22.737,1.661c1.739-2.212,3.682-4.252,5.796-6.1
		c-9.124-4.687-19.941-6.146-30.604-3.289c-10.758,2.881-19.464,9.644-25.015,18.377c-10.1-2.25-21.042-0.875-30.688,4.695
		c-9.643,5.567-16.299,14.347-19.4,24.217c-10.337,0.445-20.546,4.604-28.42,12.479c-7.654,7.647-12.054,17.683-12.503,28.431
		c-9.861,3.105-18.635,9.759-24.2,19.394c-5.568,9.646-6.943,20.582-4.696,30.682c-8.73,5.553-15.492,14.26-18.376,25.019
		c-2.881,10.758-1.379,21.675,3.406,30.847c-7.001,7.623-11.28,17.783-11.28,28.924c0,11.128,4.271,21.277,11.257,28.896
		c-1.57,3.003-2.796,6.218-3.628,9.593c-1.714,6.958-1.633,14.318,0.233,21.285c1.121,4.183,2.834,8.051,5.015,11.549l8.767-1.383
		c-2.733-3.537-4.827-7.657-6.054-12.236c-1.519-5.667-1.585-11.65-0.193-17.301c0.508-2.062,1.197-4.05,2.049-5.946
		c6.959,5.132,15.52,8.21,24.783,8.329l2.063,15.674c-3.949,2.617-7.366,5.842-10.198,9.517l13.634-2.15
		c0.447-0.319,0.91-0.62,1.374-0.92c0.494-0.319,0.979-0.648,1.492-0.944l2.315-1.337l-3.477-26.419l-3.147-23.91l-3.514-26.698
		L92.253,217.911z M171.535,39.939c7.205-4.159,15.292-5.441,22.925-4.207c-2.858,7.303-3.743,15.44-2.177,23.59l-14.311,8.26
		c-6.278-5.433-13.773-8.735-21.532-9.909C159.188,50.451,164.338,44.094,171.535,39.939z M125.37,75.365
		c5.879-5.879,13.356-9.212,21.046-9.998c-0.874,7.798,0.378,15.893,4.001,23.363l-11.671,11.686
		c-5.956-2.889-12.307-4.271-18.591-4.271c-1.609,0-3.212,0.09-4.804,0.27C116.153,88.461,119.639,81.09,125.37,75.365z
		 M89.939,121.532c4.153-7.189,10.502-12.337,17.717-15.087c1.201,7.962,4.612,15.377,9.931,21.514l-8.247,14.306
		c-8.154-1.567-16.302-0.68-23.61,2.183C84.5,136.817,85.783,128.732,89.939,121.532z M67.667,175.304
		c2.153-8.032,6.962-14.657,13.229-19.183c3.141,7.187,8.268,13.567,15.136,18.222l-4.276,15.978
		c-8.276,0.595-15.908,3.555-22.222,8.205C66.369,191.476,65.516,183.334,67.667,175.304z M67.872,254.942
		c-4.879-5.989-7.808-13.628-7.808-21.938c0-8.318,2.933-15.962,7.819-21.955c4.97,6.223,11.706,11.113,19.705,13.806l2.063,15.678
		C80.926,242.989,73.366,248.099,67.872,254.942z M73.635,260.557c3.677-4.795,8.576-8.598,14.254-10.958l2.364,17.894
		C84.052,266.669,78.364,264.207,73.635,260.557z"/>
	<path fill="#BCD7F0" d="M248.046,19.328c-5.623,7.152-9.125,16.061-9.522,25.796c-0.007,0.178-0.024,0.353-0.029,0.531
		l11.995,0.348c0.033-1.133,0.123-2.251,0.268-3.352c0.834-6.33,3.48-12.074,7.376-16.724c1.722-2.056,3.688-3.896,5.853-5.478
		c5.671-4.142,12.694-6.51,20.226-6.285c6.724,0.193,12.921,2.41,18.03,6.045c2.192,1.56,4.185,3.379,5.931,5.415
		c4.066,4.743,6.797,10.649,7.632,17.117c0.217,1.683,0.309,3.404,0.26,5.153l11.996,0.342c0.029-1.001,0.012-1.993-0.025-2.98
		c-0.368-9.819-3.921-18.875-9.683-26.127c-1.759-2.214-3.721-4.26-5.862-6.107c-7.529-6.495-17.244-10.547-27.933-10.854
		c-11.699-0.343-22.508,3.886-30.716,11.059C251.728,15.076,249.785,17.116,248.046,19.328z"/>
</g>
<polygon fill="#BCD7F0" points="46.011,312.664 523.764,236.539 523.764,223.721 46.011,299.845 "/>
<polygon fill="#BCD7F0" points="46.324,421.016 524.076,344.892 524.076,332.072 46.324,408.196 "/>
<polygon fill="#BCD7F0" points="2.055,404.196 47.413,397.296 47.413,383.525 10.619,389.475 "/>
<polygon fill="#BCD7F0" points="569.36,240.48 524.003,247.381 524.003,261.152 560.796,255.201 "/>
<path fill-rule="evenodd" fill="#BCD7F0" d="M76.022,349.935c-5.507,4.318-10.814,8.817-13.388,15.664
	c-2.167,5.77-0.812,11.833,3.696,15.93c0.683,0.62,1.548,1.033,2.669,1.766c-2.151-5.234-1.466-8.378,1.986-10.647
	c2.64-1.732,5.308-1.68,7.924-0.055c2.539,1.578,3.64,4.316,3.085,7.286c-0.57,3.019-2.694,5.125-5.804,5.744
	c-8.803,1.759-17.076-6.419-15.979-15.877c0.818-7.048,4.691-12.358,9.894-16.864c5.262-4.561,10.617-9.021,15.76-13.716
	c3.055-2.788,5.147-6.253,5.4-10.975c-0.851,0.605-1.445,1.109-2.11,1.486c-2.14,1.229-4.721,0.718-6.253-1.237
	c-1.575-2.008-1.601-4.136-0.145-6.171c1.415-1.977,4.159-2.555,6.269-1.383c3.004,1.664,3.795,4.494,3.7,7.65
	c-0.188,6.166-4.07,10.25-8.188,14.173c-0.975,0.928-2.01,1.798-3.235,2.889"/>
<path fill-rule="evenodd" fill="#BCD7F0" d="M491.126,292.183c5.52-4.329,10.841-8.841,13.422-15.703
	c2.172-5.786,0.813-11.863-3.706-15.969c-0.684-0.623-1.552-1.036-2.675-1.771c2.155,5.247,1.468,8.397-1.991,10.673
	c-2.646,1.736-5.321,1.685-7.943,0.055c-2.546-1.582-3.648-4.327-3.093-7.304c0.571-3.026,2.701-5.138,5.817-5.759
	c8.826-1.764,17.12,6.435,16.02,15.917c-0.82,7.064-4.702,12.389-9.919,16.905c-5.275,4.574-10.644,9.045-15.799,13.752
	c-3.064,2.794-5.161,6.267-5.414,11.002c0.855-0.607,1.449-1.113,2.115-1.49c2.146-1.231,4.732-0.721,6.269,1.239
	c1.579,2.013,1.605,4.147,0.146,6.186c-1.419,1.982-4.169,2.561-6.285,1.387c-3.012-1.668-3.804-4.505-3.709-7.669
	c0.188-6.182,4.08-10.275,8.208-14.21c0.977-0.93,2.016-1.801,3.244-2.896"/>
<g>
	<path fill="#FFFFFF" d="M104.94,348.086c0.964-17.484,14.739-31.257,31.76-33.816c12.363-1.858,19.192,3.766,22.778,10.297
		l-10.612,6.646c-2.117-4.229-6.997-7.113-12.756-6.248c-10.331,1.554-18.218,10.567-18.807,21.262
		c-0.589,10.695,6.427,17.469,16.758,15.915c5.759-0.865,11.041-5.278,13.664-10.22l10.055,3.455
		c-4.368,7.644-11.945,15.602-24.308,17.46C116.452,375.396,103.981,365.486,104.94,348.086z"/>
	<path fill="#FFFFFF" d="M163.707,339.25c0.94-17.06,14.062-31.155,31.168-33.728c17.021-2.56,28.795,7.793,27.854,24.853
		c-0.94,17.062-14.061,31.156-31.083,33.715C174.541,366.662,162.767,356.312,163.707,339.25z M210.366,332.234
		c0.585-10.608-5.665-17.582-16.081-16.017c-10.501,1.579-17.63,10.564-18.215,21.173c-0.58,10.525,5.665,17.583,16.166,16.004
		C202.652,351.829,209.786,342.76,210.366,332.234z"/>
	<path fill="#FFFFFF" d="M269.184,351.42l-24.894-32.871l-2.035,36.921l-12.024,1.808l3.12-56.613l12.364-1.859l24.205,31.63
		l1.96-35.563l12.025-1.809l-3.12,56.613L269.184,351.42z"/>
	<path fill="#FFFFFF" d="M324.479,343.106l-9.984-18.447l-8.807,1.324l-1.109,20.115l-12.025,1.808l3.12-56.613l26.421-3.973
		c11.77-1.77,18.628,4.859,18.048,15.385c-0.548,9.93-7.198,16.317-13.376,18.678l11.6,19.636L324.479,343.106z M327.782,304.479
		c0.257-4.669-3.224-7.006-7.966-6.293l-12.703,1.91l-0.842,15.277l12.702-1.91C323.716,312.75,327.516,309.315,327.782,304.479z"/>
	<path fill="#FFFFFF" d="M386.631,333.761l-3.027-9.056l-24.219,3.642l-4.085,10.125l-13.634,2.05l24.883-59.885l15.073-2.267
		l18.644,53.341L386.631,333.761z M373.421,291.555l-10.148,25.686l17.613-2.648L373.421,291.555z"/>
	<path fill="#FFFFFF" d="M406.105,330.833l3.121-56.613l22.27-3.349c17.699-2.662,29.355,6.781,28.42,23.756
		c-0.945,17.146-13.842,30.195-31.455,32.844L406.105,330.833z M447.637,296.473c0.547-9.93-5.123-16.736-16.641-15.004
		l-10.33,1.553l-1.951,35.394l10.246-1.54C440.139,315.193,447.104,306.15,447.637,296.473z"/>
</g>
<g>
	<path fill-rule="evenodd" fill="#FFFFFF" d="M336.275,199.01c6.874-3.165,13.009-8.428,19.671-12.868
		c1.4,5.773,5.789,9.155,12.663,9.388c6.749,0.229,12.226-3.476,17.717-8.85c-0.329,1.638-0.426,2.476-0.672,3.29
		c-1.325,4.355-8.432,29.257-16.755,58.427l21.341-3.4c6.065-21.017,10.71-37.207,11.379-39.602
		c5.421-19.398,10.854-38.817,15.413-58.309c2.57-10.994-7.257-18.107-18.143-14.043c-2.681,0.999-5.171,2.738-7.75,4.137
		c0.144,0.293,0.287,0.586,0.43,0.878c5.71-1.255,7.212-0.725,7.523,2.979c0.127,1.525-0.037,3.198-0.472,4.745
		c-2.966,10.557-5.582,21.195-9.304,31.586c-1.479,4.138-5.269,7.886-8.454,11.435c-0.922,1.029-3.907,1.511-4.994,0.862
		c-1.096-0.652-1.48-3.002-1.315-4.644c0.218-2.153,1.354-4.33,1.964-6.515c2.443-8.714,5.335-17.407,7.076-26.164
		c1.233-6.206-0.941-11.456-6.786-14.089c-6.231-2.805-15.343-0.414-18.769,4.893c7.565-1.594,9.337,0.611,6.736,8.382
		c-0.238,0.721-0.517,1.434-0.744,2.158c-2.884,9.154-5.756,18.311-8.66,27.462c-0.224,0.694-0.516,1.55-1.046,1.984
		c-5.261,4.302-10.212,9.275-15.963,12.604c-8.501,4.922-15.041,0.908-14.943-8.379c0.012-1.172,0.932-2.813,1.912-3.691
		c3.726-3.337,7.813-6.272,11.457-9.687c6.177-5.792,12.109-11.856,14.646-20.017c1.986-6.383-0.22-10.745-6.2-12.519
		c-7.737-2.294-15.115-0.199-21.9,5.257c-11.74,9.444-15.958,21.825-17.35,35.191c-0.175,1.678,0.093,3.723-0.814,4.982
		c-5.696,7.904-12.637,14.474-21.72,18.214c-5.573,2.296-10.689,0.375-11.44-5.155c-0.688-5.079-0.538-10.612,0.514-15.87
		c1.982-9.923,6.418-19.261,13.271-27.533c2.427-2.931,5.52-5.08,9.326-4.095c3.128,0.81,4.71,3.896,4.493,7.479
		c-2.302,0.028-5.014-0.742-6.855,0.308c-1.828,1.042-3.725,3.994-3.832,5.961c-0.099,1.74,1.843,3.916,3.568,4.749
		c2.382,1.15,5.032-0.175,7-2.569c5.1-6.199,2.759-15.949-4.666-18.58c-9.033-3.2-17.785-0.637-25.473,6.303
		c-11.401,10.293-15.319,23.158-15.917,36.9c-0.054,1.27-0.12,2.897-0.884,3.823c-3.648,4.417-7.341,8.85-11.457,12.83
		c-1.347,1.305-4.377,2.106-6.002,1.628c-2.428-0.713-2.191-3.41-1.387-5.923c3.542-11.088,6.96-22.201,10.578-33.275
		c0.648-1.983,1.672-4.238,3.2-5.592c1.098-0.975,3.322-0.661,5.054-0.924c-2.169-9.233-14.985-9.481-24.722-0.812
		c-2.285-1.293-4.295-2.944-6.7-3.7c-8.392-2.642-16.685-0.541-23.896,5.788c-12.638,11.094-17.015,24.91-16.476,39.857
		c0.32,8.828,6.865,14.888,15.716,15.192c7.197,0.249,13.682-2.936,20.157-6.395c1.022-0.546,2.478-1.127,3.349-0.843
		c11.428,3.73,17.567,2.083,26.956-7.5c2.456-2.507,4.842-5.079,7.305-7.669c0.29,0.596,0.703,1.514,1.168,2.399
		c3.442,6.549,9.139,9.384,17.084,8.476c6.598-0.754,12.924-2.983,18.482-7.155c5.296-3.974,10.169-8.551,15.158-12.804
		C312.591,203.268,320.811,206.133,336.275,199.01z M341.301,146.959c1.98-1.688,4.833-3.631,6.693-1.733
		c1.422,1.449,2.254,4.539,1.65,6.648c-1.073,3.752-3.019,7.562-5.334,10.905c-4.91,7.083-14.679,15.848-20.781,19.2
		C325.813,168.602,330.138,156.469,341.301,146.959z M225.038,170.408c-3.311,8.693-6.627,17.389-9.652,26.146
		c-2.041,5.909-1.47,11.399,2.392,16.498c-3.503,1.389-6.529,2.952-9.648,3.739c-4.796,1.21-8.785-1.81-9.314-7.198
		c-1.41-14.362,3.237-27.764,12.727-40.173c2.271-2.969,5.214-5.232,9.065-5.455C224.657,163.729,226.499,166.572,225.038,170.408z"
		/>
	<path fill-rule="evenodd" fill="#FFFFFF" d="M325.976,376.483c-1.545,1.274-3.28,2.347-5.242,3.128
		c-11.218,4.47-19.382-7.583-17.023-17.041c1.033-4.147,2.465-8.236,7.692-10.856c-0.606,1.033-0.971,1.521-1.189,2.051
		c-1.809,4.393-0.185,8.233,3.957,9.415c3.55,1.019,7.721-1.119,9.422-4.825c1.851-4.025,0.39-7.844-3.584-9.363
		c-5.835-2.234-13.463,1.465-16.639,8.229c-6.835,14.554,3.455,27.942,19.152,27.166c10.14-0.5,18.653-4.423,25.159-11.29
		L325.976,376.483z"/>
</g>
</svg>
